/* XPM */
static char * skeleton_xpm[] = {
"64 64 303 2",
"  	c #FF00FF",
". 	c #FD00FD",
"+ 	c #000000",
"@ 	c #F700F7",
"# 	c #DADADA",
"$ 	c #D8D8D8",
"% 	c #D3D3D3",
"& 	c #CCCCCC",
"* 	c #C5C5C5",
"= 	c #BDBDBD",
"- 	c #FB00FB",
"; 	c #D1D1D1",
"> 	c #D0D0D0",
", 	c #CBCBCB",
"' 	c #C2C2C2",
") 	c #BABABA",
"! 	c #B4B4B4",
"~ 	c #ADADAD",
"{ 	c #A7A7A7",
"] 	c #A1A1A1",
"^ 	c #1A001A",
"/ 	c #FC00FC",
"( 	c #4D4D4D",
"_ 	c #AEAEAE",
": 	c #424242",
"< 	c #383838",
"[ 	c #878787",
"} 	c #848484",
"| 	c #7B7B7B",
"1 	c #F800F8",
"2 	c #898989",
"3 	c #2D2D2D",
"4 	c #737373",
"5 	c #6C6C6C",
"6 	c #5D5D5D",
"7 	c #666666",
"8 	c #636363",
"9 	c #474747",
"0 	c #767676",
"a 	c #676767",
"b 	c #464646",
"c 	c #575757",
"d 	c #595959",
"e 	c #A4A4A4",
"f 	c #2A2A2A",
"g 	c #626262",
"h 	c #292929",
"i 	c #F0F0F0",
"j 	c #606060",
"k 	c #616161",
"l 	c #A2A2A2",
"m 	c #5A5A5A",
"n 	c #EFEFEF",
"o 	c #C9C9C9",
"p 	c #747474",
"q 	c #282828",
"r 	c #D6D6D6",
"s 	c #8C8C8C",
"t 	c #E4E4E4",
"u 	c #B2B2B2",
"v 	c #494949",
"w 	c #A3A3A3",
"x 	c #414141",
"y 	c #858585",
"z 	c #565656",
"A 	c #434343",
"B 	c #FA00FA",
"C 	c #1B001B",
"D 	c #DBDBDB",
"E 	c #D7D7D7",
"F 	c #CDCDCD",
"G 	c #BFBFBF",
"H 	c #999999",
"I 	c #2F2F2F",
"J 	c #BBBBBB",
"K 	c #3F3F3F",
"L 	c #888888",
"M 	c #7C7C7C",
"N 	c #D4D4D4",
"O 	c #C6C6C6",
"P 	c #B6B6B6",
"Q 	c #969696",
"R 	c #6E6E6E",
"S 	c #8A8A8A",
"T 	c #CACACA",
"U 	c #8D8D8D",
"V 	c #7D7D7D",
"W 	c #D2D2D2",
"X 	c #C8C8C8",
"Y 	c #525252",
"Z 	c #BEBEBE",
"` 	c #C4C4C4",
" .	c #C1C1C1",
"..	c #B0B0B0",
"+.	c #919191",
"@.	c #232323",
"#.	c #FE00FE",
"$.	c #312113",
"%.	c #4A4A4A",
"&.	c #B1B1B1",
"*.	c #A8A8A8",
"=.	c #959595",
"-.	c #6D6D6D",
";.	c #484848",
">.	c #343434",
",.	c #2E2E2E",
"'.	c #818181",
").	c #C7C7C7",
"!.	c #727272",
"~.	c #6E4420",
"{.	c #744C29",
"].	c #DCDCDC",
"^.	c #8E8E8E",
"/.	c #7E7E7E",
"(.	c #949494",
"_.	c #757575",
":.	c #2C2C2C",
"<.	c #101010",
"[.	c #B8B8B8",
"}.	c #9F9F9F",
"|.	c #656565",
"1.	c #F2F2F2",
"2.	c #653A15",
"3.	c #683D17",
"4.	c #6C421D",
"5.	c #5F5F5F",
"6.	c #313131",
"7.	c #5E5E5E",
"8.	c #5E3613",
"9.	c #100903",
"0.	c #A6A6A6",
"a.	c #A0A0A0",
"b.	c #585858",
"c.	c #F3F3F3",
"d.	c #9C9C9C",
"e.	c #7A7A7A",
"f.	c #5C5C5C",
"g.	c #F900F9",
"h.	c #8B8B8B",
"i.	c #555555",
"j.	c #F1F1F1",
"k.	c #9A9A9A",
"l.	c #4F4F4F",
"m.	c #929292",
"n.	c #6F6F6F",
"o.	c #F7F7F7",
"p.	c #8F8F8F",
"q.	c #A5A5A5",
"r.	c #FEFEFE",
"s.	c #F8F8F8",
"t.	c #777777",
"u.	c #FAFAFA",
"v.	c #FCFCFC",
"w.	c #220022",
"x.	c #191919",
"y.	c #130013",
"z.	c #797979",
"A.	c #3A3A3A",
"B.	c #2B2B2B",
"C.	c #3D3D3D",
"D.	c #393939",
"E.	c #F9F9F9",
"F.	c #F5F5F5",
"G.	c #F100F1",
"H.	c #4C4C4C",
"I.	c #3C3C3C",
"J.	c #262626",
"K.	c #535353",
"L.	c #110011",
"M.	c #78512F",
"N.	c #505050",
"O.	c #4B4B4B",
"P.	c #444444",
"Q.	c #808080",
"R.	c #987A60",
"S.	c #8D6C50",
"T.	c #7D5737",
"U.	c #673B15",
"V.	c #573212",
"W.	c #252525",
"X.	c #AFAFAF",
"Y.	c #17120D",
"Z.	c #8A684B",
"`.	c #6D431E",
" +	c #E7E7E7",
".+	c #717171",
"++	c #828282",
"@+	c #6B401B",
"#+	c #ECECEC",
"$+	c #DDDDDD",
"%+	c #686868",
"&+	c #271608",
"*+	c #EAEAEA",
"=+	c #DFDFDF",
"-+	c #707070",
";+	c #7F7F7F",
">+	c #787878",
",+	c #646464",
"'+	c #F400F4",
")+	c #9B9B9B",
"!+	c #ABABAB",
"~+	c #454545",
"{+	c #6A6A6A",
"]+	c #2A1809",
"^+	c #CFCFCF",
"/+	c #37281C",
"(+	c #5A3412",
"_+	c #1C1006",
":+	c #A9A9A9",
"<+	c #492A0F",
"[+	c #46280E",
"}+	c #47290E",
"|+	c #C0C0C0",
"1+	c #515151",
"2+	c #3E3E3E",
"3+	c #303030",
"4+	c #363636",
"5+	c #989898",
"6+	c #323232",
"7+	c #E6E6E6",
"8+	c #868686",
"9+	c #939393",
"0+	c #171717",
"a+	c #B7B7B7",
"b+	c #979797",
"c+	c #080008",
"d+	c #F7BF67",
"e+	c #F6B54F",
"f+	c #333333",
"g+	c #FBFBFB",
"h+	c #696969",
"i+	c #F39F1B",
"j+	c #3B3B3B",
"k+	c #EDEDED",
"l+	c #E8E8E8",
"m+	c #CD7D00",
"n+	c #1D1D1D",
"o+	c #040004",
"p+	c #A26300",
"q+	c #909090",
"r+	c #838383",
"s+	c #030003",
"t+	c #390039",
"u+	c #ACACAC",
"v+	c #804E00",
"w+	c #212121",
"x+	c #1C001C",
"y+	c #E5E5E5",
"z+	c #F600F6",
"A+	c #F6F6F6",
"B+	c #FDFDFD",
"C+	c #202020",
"D+	c #EBEBEB",
"E+	c #E1E1E1",
"F+	c #1E001E",
"G+	c #E9E9E9",
"H+	c #9E9E9E",
"I+	c #4E4E4E",
"J+	c #260026",
"K+	c #0B000B",
"L+	c #F200F2",
"M+	c #302011",
"N+	c #120012",
"O+	c #F500F5",
"P+	c #353535",
"Q+	c #272727",
"R+	c #AAAAAA",
"S+	c #241507",
"T+	c #633914",
"U+	c #545454",
"V+	c #5B5B5B",
"W+	c #9D9D9D",
"X+	c #161616",
"Y+	c #0A000A",
"Z+	c #8D8886",
"`+	c #817B78",
" @	c #131111",
".@	c #726C69",
"+@	c #6E6864",
"@@	c #645D5A",
"#@	c #514A46",
"$@	c #372F2A",
"%@	c #13100E",
"&@	c #030302",
"*@	c #12100E",
"=@	c #0E0E0D",
"-@	c #3B332E",
";@	c #080706",
">@	c #443D38",
",@	c #38302B",
"'@	c #332C27",
")@	c #2D2723",
"!@	c #26201D",
"~@	c #1E1A17",
"{@	c #171311",
"]@	c #100E0C",
"^@	c #0E0C0B",
"/@	c #312A25",
"(@	c #2A2420",
"_@	c #221D1A",
":@	c #1B1815",
"<@	c #191614",
"[@	c #1B1715",
"                                                                                                                                ",
"                                                    + + + + + + +                                                               ",
"                                                  + # # $ % & * = + +                                                           ",
"                                                  + ; > , ' ) ! ~ { ] ^                                                         ",
"                                                + + + ( _ : + + < [ } | +                                                       ",
"                                                + [ 2 + 3 + 4 5 + 6 7 8 +                                                       ",
"                                              + 9 + + 0 + a + + + b c d +                                                       ",
"                                              + e + f + g + h i j + + k +                                                       ",
"                                              + l + + + m + n + + o + p +                                                       ",
"                                              + ] + + h + q r + + ( + s +                                                       ",
"                                              + ] + j t + + ) u v + w ] +       + + + +                                         ",
"                                              + x y + z + + u u + e A + +   + + D E F G +                                       ",
"                                        + + + H + + I + J u u + + K + L M + r # D N O P { +                                     ",
"                                      + , + Q L M R + + + + + + + + S + + + % r N T P w U V +                                   ",
"                                    + W X + y + + d Y + + + + Z * + + + + ` X X  ...+.4 k @.+ +                                 ",
"                                    + > ' + V + $.+ + +       + ; + + Q + %.&.*.=.-.;.>.,.+ '.+                                 ",
"                                  + X ).P + !.+ + + ~.{.+ +   + ].+ + ^./.+ (._.Y :.q <.+ + !.+                                 ",
"                                  + [.&.}.+ |.+ 1.+ + 2.3.4.+ + + + + + M + R v h <.+ + M -.5.+                                 ",
"                                  + { Q 6.+ 7.+ 1.+   + 8.9.+ *.0.a.+ + | + + + + + /.-.5.+ +                                   ",
"                                  + + + + 5 b.+ c.c.+ + + + ] d.+ U e.+ g f.f.j g 8 7.+ +                                       ",
"                          + +   + h./.R g i.+ + + 1.j.n <.+ k.+ l.+ |.+ + + + + + + + e.+                                       ",
"                        + m.+.+   + + + + + n.o.+ + + + + p.L + q.+ c %.+ + +     + n r.s.+                                     ",
"                          + /.t.+ + u.v.w.  + 1.x.+ +   y.z.+ A.B.+ b C.+ +         + E.F.+                                     ",
"                            + |.7.+ E.H.    + E.o.v.+ + + 4 + + + ;.I.+ J.N +         + + + + + + +                             ",
"                            + + K.+ q L.    + + + + M.2.+ g c N.O.P.+ J.% +           + + H ^.Q.!.a +                           ",
"                            + b + i.+     + R.S.T.U.V.+ + + + + + + W.+ +             + + y + + + + +                           ",
"                          + X.H 6.+ Y.+ + Z.T.`.8.+ + + n  ++   + + +   +             + + z..++ + 6.+                           ",
"                          + l +++ $.@++ + U.8.+ +     + #+$++           +                 + %+8 k + +                           ",
"                          + (._.+ + &++ + + +       + *+=+> +       + + -++                 + + + +                             ",
"                        + e y + k + + ;+y 2 + + + + + + + + +     + >+5 ,++                 + j.+ + +                           ",
"                        + H z.+ 6 +   + +   + + )+0...&.!+q.)++ + + %++ + ~++               + + + {+j +                         ",
"                        + m.+ ]++   +     + + M [ + + + + + y 0 + /++ ( ..)++             + Q.R 8 b.+                           ",
"                      + + + ]+(++ + + , , ` + -.+ + ^.m.S e.+ 7.K.+ _++ :++.+             + z.+ + + +                           ",
"                    + &.] + + <+[+}++ * |+! b + O.+ 5 {+j 1+b + K + + + q.^.+             + M + + s +                           ",
"                    + 0.U + j + + + + |+! l s + w b + O.2+3++ + 4++ + + l ^.+             + | + w z.+                           ",
"                    + 5+M + F.+   + |+[.0.y + + S 5++ x 6++ J.+ D.+ 7++ w =.+             + 0 + 8++                             ",
"                    + ++5 + + +   + J ..2++ x.>++ 9+x + >.+ ;.0++ + f.+ + K ;++           + V + 5 +                             ",
"                    + + + + + & + + a+:++ h.H.F.+ b+a.: + J.A.f + v.+ L [ + z.+           + p.+ + +                             ",
"                  c+d+e++ + + T + + &.a.+ h.+ u.+ k.] }.} c f+q + g+z + y + I +           + +.e.h++                             ",
"                    + + i++ K.).+ + *.j++ [ + v.+ k.}.H | l.B.q + u.u.+ Q.| + +           + + {+d +                             ",
"                  + k+l++ m++ +   + }.+ U e.+ b.+ + d.+..+n++ + + x.s.+ + 0 + o+        + + + + +                               ",
"                + k+ +|++ p++     + q++ e.+ 6 + e.+ =.y ,++ p.r++ + u.+ + .+%+s+      + p.+ .+m +                               ",
"               + +7+u++ + v++     + + + -++ i + | + < .+w++ y +   + u.+ + + g + +     x+p 7 z P.+                               ",
"            + #+y+:++     +       + '.4 7 J.A++ + 2 + f.+ Q.0 +   + g+u.+ + 7.b.+       + 1+A +                                 ",
"          + #+y+e +               + 0 + + h+B++ + r++ C++ R +     + + + +   + + i.+       + +                                   ",
"        + D+E+}.+                   + + + + o.+ + p R + ,+5.+     + 5+^.+     + + +                                             ",
"      F+G+# H++                     + + + 1+E.g   + c l.I++     + h.S /.+       +                                               ",
"    w. +> )++                     + Q.V + n.s.D.    + + +       + /.+ n.+ +                                                     ",
"  + =+Z Q +                       + + t.0 + + + J+            + + -.+ k c + +                                                   ",
"  + + + y.                        + 1++ -+-.+ M+4.+         + + ,+d + + ;.%.+ N+                                                ",
"                                    + Y + k 6 + +           + + c + l.9 + b +                                                   ",
"                                    + * N.+ 1+N.+             + + I+) *.P++ l.+                                                 ",
"                                    + G  .%.+ + + +             + ) [.{ Q.Q++                                                   ",
"                                    + ! a+X.H++++ 2.+         + + a+! e ;+m + +                                                 ",
"                                    + R+:+e ^..++ S++       + T++ &.u+)+0 U++ 3.+                                               ",
"                                    + + C.L 4 V+1++           + + { W+r+7 O.+ +                                                 ",
"                                  + s h.+ h N.2+0++             + 5+P++ + + +                                                   ",
"                                    + M Q.+ X++ + !.+           + P++ (.h.'.+ +                                                 ",
"                                    + + + n.+ h+|.j +           + + } t.+ 7 j +                                                 ",
"                                + + Z+`++ 6 z + + +           + 0 R |.+  @+ ( l.+                                               ",
"                            + .@+@@@#@$@%@+ + &@*@+             + + + =@-@;@+ + +                                               ",
"                          + >@,@'@)@!@~@{@]@^@+ +               + $@/@(@_@:@<@[@+                                               ",
"                            + + + + + + + + +                     + + + + + + +                                                 ",
"                                                                                                                                "};
