/* XPM */
static char *skeleton_2[] = {
/* columns rows colors chars-per-pixel */
"50 50 3 1 ",
"  c black",
". c #D2D1B4",
"X c None",
/* pixels */
"XXXXXXXXXXXXXXXXXXXXXXXXXXXXXXXXXXXXXXXXXXXXXXXXXX",
"XXXXXXXXXXXXXXXXXXXXXXXXXXXXXXXXXXXXXXXXXXXXXXXXXX",
"XXXXXXXXXXXXXXXXXXXXXXXXXXXXXXXXXXXXXXXXXXXXXXXXXX",
"XXXXXXXXXXXXXXXXXXXXXXXXXXXXXXXXXXXXXXXXXXXXXXXXXX",
"XXXXXXXXXXXXXXXXXXXXX XXXXXXXXXXXXXXXXXXXXXXXXXXXX",
"XXXXXXXXXXXXXXXXXX .    XXXXXXXXXXXXXXXXXXXXXXXXXX",
"XXXXXXXXXXXXXXXXX ......  XXXXXXXXXXXXXXXXXXXXXXXX",
"XXXXXXXXXXXXXXXX ......... XXXXXXXXXXXXXXXXXXXXXXX",
"XXXXXXXXXXXXXXX ......... . XXXXXXXXXXXXXXXXXXXXXX",
"XXXXXXXXXXXXXXX.........   . XXXXXXXXXXXXXXXXXXXXX",
"XXXXXXXXXXXXXXX .......    .XXXXXXXXXXXXXXXXXXXXXX",
"XXXXXXXXXXXXXX  .......   .  XXXXXXXXXXXXXXXXXXXXX",
"XXXXXXXXXXXXXXX ........  . XXXXXXXXXXXXXXXXXXXXXX",
"XXXXXXXXXXXXXXX ...   ...... XXXXXXXXXXXXXXXXXXXXX",
"XXXXXXXXXXXXXXXX .     .  ..XXXXXXXXXXXXXXXXXXXXXX",
"XXXXXXXXXXXXXXXX .     . .. XXXXXXXXXXXXXXXXXXXXXX",
"XXXXXXXXXXXXXXXXX .  ....    XXXXXXXXXXXXXXXXXXXXX",
"XXXXXXXXXXXXXXXXXX ..  .  ..    XXXXXXXXXXXXXXXXXX",
"XXXXXXXXXXXXXXXXX  ..         .   XXXXXXXXXXXXXXXX",
"XXXXXXXXXXXXXXXX ..  X.  . .X  ... XXXXXXXXXXXXXXX",
"XXXXXXXXXXXXXXXX    X.       X     XXXXXXXXXXXXXXX",
"XXXXXXXXXXXXXXXXX . .  . . .  . . XXXXXXXXXXXXXXXX",
"XXXXXXXXXXXXXXXXX .  ..     ..  . XXXXXXXXXXXXXXXX",
"XXXXXXXXXXXXXXXXX . X.   .   .X . XXXXXXXXXXXXXXXX",
"XXXXXXXXXXXXXXXXX .  . .   . .  . XXXXXXXXXXXXXXXX",
"XXXXXXXXXXXXXXXXX . X .  .  . X . XXXXXXXXXXXXXXXX",
"XXXXXXXXXXXXXXXXX    .       .    XXXXXXXXXXXXXXXX",
"XXXXXXXXXXXXXXXXX . XX . . . XX . XXXXXXXXXXXXXXXX",
"XXXXXXXXXXXXXXXXX .   .     .   . XXXXXXXXXXXXXXXX",
"XXXXXXXXXXXXXXXXX . ..   .   .. . XXXXXXXXXXXXXXXX",
"XXXXXXXXXXXXXXXXX .   ..   ..   . XXXXXXXXXXXXXXXX",
"XXXXXXXXXXXXXXXXX .    . . .    . XXXXXXXXXXXXXXXX",
"XXXXXXXXXXXXXXXXX . X         X . XXXXXXXXXXXXXXXX",
"XXXXXXXXXXXXXXXX .. X . ... . X .. XXXXXXXXXXXXXXX",
"XXXXXXXXXXXXXXXX .  X ..   .. X  . XXXXXXXXXXXXXXX",
"XXXXXXXXXXXXXXXX    X .  X  . X    XXXXXXXXXXXXXXX",
"XXXXXXXXXXXXXXXXX X X . XXX . X X XXXXXXXXXXXXXXXX",
"XXXXXXXXXXXXXXXXXXXXX . XXX . XXXXXXXXXXXXXXXXXXXX",
"XXXXXXXXXXXXXXXXXXXXX . XXX . XXXXXXXXXXXXXXXXXXXX",
"XXXXXXXXXXXXXXXXXXXXX . XXX . XXXXXXXXXXXXXXXXXXXX",
"XXXXXXXXXXXXXXXXXXXXX . XXX . XXXXXXXXXXXXXXXXXXXX",
"XXXXXXXXXXXXXXXXXXXXX . XXX . XXXXXXXXXXXXXXXXXXXX",
"XXXXXXXXXXXXXXXXXXXXX . XXX . XXXXXXXXXXXXXXXXXXXX",
"XXXXXXXXXXXXXXXXXXXXX . XXX . XXXXXXXXXXXXXXXXXXXX",
"XXXXXXXXXXXXXXXXXXXXX . XXX . XXXXXXXXXXXXXXXXXXXX",
"XXXXXXXXXXXXXXXXXXXXX . XXX . XXXXXXXXXXXXXXXXXXXX",
"XXXXXXXXXXXXXXXXXXXXX . XXX . XXXXXXXXXXXXXXXXXXXX",
"XXXXXXXXXXXXXXXXXXXX  . XXX .  XXXXXXXXXXXXXXXXXXX",
"XXXXXXXXXXXXXXXXXX  ... XXX ...  XXXXXXXXXXXXXXXXX",
"XXXXXXXXXXXXXXXX        XXX        XXXXXXXXXXXXXXX"
};
