/* XPM */
static char *skeleton_3[] = {
/* columns rows colors chars-per-pixel */
"50 50 3 1 ",
"  c black",
". c #D2D1B4",
"X c #FF00FF",
/* pixels */
"XXXXXXXXXXXXXXXXXXXXXXXXXXXXXXXXXXXXXXXXXXXXXXXXXX",
"XXXXXXXXXXXXXXXXXXXXXXXXXXXXXXXXXXXXXXXXXXXXXXXXXX",
"XXXXXXXXXXXXXXXXXXXXXXXXXXXXXXXXXXXXXXXXXXXXXXXXXX",
"XXXXXXXXXXXXXXXXXXXXXXXXXXXXXXXXXXXXXXXXXXXXXXXXXX",
"XXXXXXXXXXXXXXXXXXXXXXXXXXXX XXXXXXXXXXXXXXXXXXXXX",
"XXXXXXXXXXXXXXXXXXXXXXXXXX    . XXXXXXXXXXXXXXXXXX",
"XXXXXXXXXXXXXXXXXXXXXXXX  ...... XXXXXXXXXXXXXXXXX",
"XXXXXXXXXXXXXXXXXXXXXXX ......... XXXXXXXXXXXXXXXX",
"XXXXXXXXXXXXXXXXXXXXXX . ......... XXXXXXXXXXXXXXX",
"XXXXXXXXXXXXXXXXXXXXX .   .........XXXXXXXXXXXXXXX",
"XXXXXXXXXXXXXXXXXXXXXX.    ....... XXXXXXXXXXXXXXX",
"XXXXXXXXXXXXXXXXXXXXX  .   .......  XXXXXXXXXXXXXX",
"XXXXXXXXXXXXXXXXXXXXXX .  ........ XXXXXXXXXXXXXXX",
"XXXXXXXXXXXXXXXXXXXXX ......   ... XXXXXXXXXXXXXXX",
"XXXXXXXXXXXXXXXXXXXXXX..  .     . XXXXXXXXXXXXXXXX",
"XXXXXXXXXXXXXXXXXXXXXX .. .     . XXXXXXXXXXXXXXXX",
"XXXXXXXXXXXXXXXXXXXXX    ....  . XXXXXXXXXXXXXXXXX",
"XXXXXXXXXXXXXXXXXX    ..  .  .. XXXXXXXXXXXXXXXXXX",
"XXXXXXXXXXXXXXXX   .         ..  XXXXXXXXXXXXXXXXX",
"XXXXXXXXXXXXXXX ...  X. .  .X  .. XXXXXXXXXXXXXXXX",
"XXXXXXXXXXXXXXX     X       .X    XXXXXXXXXXXXXXXX",
"XXXXXXXXXXXXXXXX . .  . . .  . . XXXXXXXXXXXXXXXXX",
"XXXXXXXXXXXXXXXX .  ..     ..  . XXXXXXXXXXXXXXXXX",
"XXXXXXXXXXXXXXXX . X.   .   .X . XXXXXXXXXXXXXXXXX",
"XXXXXXXXXXXXXXXX .  . .   . .  . XXXXXXXXXXXXXXXXX",
"XXXXXXXXXXXXXXXX . X .  .  . X . XXXXXXXXXXXXXXXXX",
"XXXXXXXXXXXXXXXX    .       .    XXXXXXXXXXXXXXXXX",
"XXXXXXXXXXXXXXXX . XX . . . XX . XXXXXXXXXXXXXXXXX",
"XXXXXXXXXXXXXXXX .   .     .   . XXXXXXXXXXXXXXXXX",
"XXXXXXXXXXXXXXXX . ..   .   .. . XXXXXXXXXXXXXXXXX",
"XXXXXXXXXXXXXXXX .   ..   ..   . XXXXXXXXXXXXXXXXX",
"XXXXXXXXXXXXXXXX .    . . .    . XXXXXXXXXXXXXXXXX",
"XXXXXXXXXXXXXXXX . X         X . XXXXXXXXXXXXXXXXX",
"XXXXXXXXXXXXXXX .. X . ... . X .. XXXXXXXXXXXXXXXX",
"XXXXXXXXXXXXXXX .  X ..   .. X  . XXXXXXXXXXXXXXXX",
"XXXXXXXXXXXXXXX    X .  X  . X    XXXXXXXXXXXXXXXX",
"XXXXXXXXXXXXXXXX X X . XXX . X X XXXXXXXXXXXXXXXXX",
"XXXXXXXXXXXXXXXXXXXX . XXX . XXXXXXXXXXXXXXXXXXXXX",
"XXXXXXXXXXXXXXXXXXXX . XXX . XXXXXXXXXXXXXXXXXXXXX",
"XXXXXXXXXXXXXXXXXXXX . XXX . XXXXXXXXXXXXXXXXXXXXX",
"XXXXXXXXXXXXXXXXXXXX . XXX . XXXXXXXXXXXXXXXXXXXXX",
"XXXXXXXXXXXXXXXXXXXX . XXX . XXXXXXXXXXXXXXXXXXXXX",
"XXXXXXXXXXXXXXXXXXXX . XXX . XXXXXXXXXXXXXXXXXXXXX",
"XXXXXXXXXXXXXXXXXXXX . XXX . XXXXXXXXXXXXXXXXXXXXX",
"XXXXXXXXXXXXXXXXXXXX . XXX . XXXXXXXXXXXXXXXXXXXXX",
"XXXXXXXXXXXXXXXXXXXX . XXX . XXXXXXXXXXXXXXXXXXXXX",
"XXXXXXXXXXXXXXXXXXXX . XXX . XXXXXXXXXXXXXXXXXXXXX",
"XXXXXXXXXXXXXXXXXXX  . XXX .  XXXXXXXXXXXXXXXXXXXX",
"XXXXXXXXXXXXXXXXX  ... XXX ...  XXXXXXXXXXXXXXXXXX",
"XXXXXXXXXXXXXXX        XXX        XXXXXXXXXXXXXXXX"
};
